<?xml version="1.0" standalone="no"?>
<!DOCTYPE svg PUBLIC "-//W3C//DTD SVG 20010904//EN"
 "http://www.w3.org/TR/2001/REC-SVG-20010904/DTD/svg10.dtd">
<svg version="1.0" xmlns="http://www.w3.org/2000/svg"
 width="338.000000pt" height="328.000000pt" viewBox="0 0 338.000000 328.000000"
 preserveAspectRatio="xMidYMid meet">

<g transform="translate(0.000000,328.000000) scale(0.100000,-0.100000)"
fill="oklch(38.6% 0.063 188.416)" stroke="none">
<path d="M1835 2992 c-47 -29 -126 -117 -168 -185 -50 -83 -90 -182 -123 -302
-25 -90 -28 -116 -28 -265 0 -102 4 -175 11 -190 11 -23 12 -21 12 25 1 64 24
182 51 265 51 154 150 301 292 436 90 85 106 115 93 174 -13 57 -81 78 -140
42z"/>
<path d="M1407 2860 c-79 -62 -130 -309 -108 -516 29 -254 127 -472 282 -619
53 -52 55 -49 9 20 -167 248 -194 535 -86 894 15 47 26 101 26 121 0 102 -59
150 -123 100z"/>
<path d="M885 2806 c-48 -21 -60 -55 -59 -175 0 -86 5 -123 28 -196 53 -173
152 -341 268 -458 62 -62 168 -147 168 -134 0 2 -12 17 -26 33 -98 111 -178
261 -220 414 -23 84 -26 115 -28 265 -1 151 -3 174 -21 204 -27 46 -70 64
-110 47z"/>
<path d="M2211 2640 c-93 -44 -175 -106 -262 -197 -118 -123 -194 -247 -246
-398 -39 -114 -68 -345 -43 -345 6 0 10 10 10 23 0 30 32 140 61 207 89 212
250 373 511 514 104 56 158 111 158 159 0 74 -79 89 -189 37z"/>
<path d="M2525 2460 c-110 -23 -204 -57 -292 -106 -26 -15 -57 -32 -68 -38
-90 -50 -224 -171 -284 -255 -23 -34 -40 -61 -38 -61 2 0 20 14 38 30 79 72
198 143 305 183 136 51 189 60 369 62 193 2 226 11 251 70 17 41 5 75 -34 101
-30 20 -182 28 -247 14z"/>
<path d="M637 2382 c-27 -30 -21 -98 13 -171 103 -218 341 -421 595 -508 114
-39 345 -68 345 -43 0 6 -10 10 -23 10 -30 0 -140 32 -207 61 -214 90 -374
251 -520 521 -69 128 -155 183 -203 130z"/>
<path d="M2289 1985 c-222 -32 -420 -127 -554 -266 l-60 -62 45 30 c85 57 214
115 308 139 173 44 408 29 600 -37 127 -44 233 -32 248 27 20 79 -94 146 -299
173 -97 14 -177 12 -288 -4z"/>
<path d="M322 1970 c-31 -13 -46 -51 -37 -97 5 -29 24 -54 83 -113 63 -62 97
-86 182 -128 184 -90 363 -129 554 -119 122 6 202 25 111 26 -64 1 -182 24
-265 51 -152 51 -309 155 -423 281 -37 41 -76 80 -87 87 -27 17 -91 23 -118
12z"/>
<path d="M2081 1770 c-24 -5 -45 -11 -48 -13 -2 -2 34 -7 79 -10 232 -16 461
-129 642 -317 96 -100 137 -124 192 -114 62 12 83 78 44 142 -70 114 -255 225
-481 288 -76 21 -122 26 -239 29 -80 2 -165 0 -189 -5z"/>
<path d="M1680 1638 c0 -4 35 -14 77 -23 297 -66 507 -236 678 -548 68 -124
107 -166 161 -174 113 -15 93 152 -37 322 -55 73 -166 180 -240 232 -92 65
-250 139 -349 163 -81 19 -290 39 -290 28z"/>
<path d="M1570 1603 c-63 -46 -233 -122 -320 -142 -168 -41 -371 -26 -599 43
-151 46 -241 26 -241 -55 0 -38 63 -86 148 -113 355 -111 788 1 1031 267 30
33 26 33 -19 0z"/>
<path d="M1616 1535 c-69 -297 -234 -505 -531 -666 -127 -69 -195 -132 -195
-181 0 -104 142 -87 314 36 78 56 200 183 255 265 116 171 190 410 179 576
l-3 50 -19 -80z"/>
<path d="M1687 1569 c57 -83 114 -209 139 -306 19 -77 24 -121 24 -224 0 -136
-13 -217 -57 -359 -36 -116 -38 -208 -4 -244 79 -84 170 45 201 285 41 315
-89 689 -302 867 l-32 27 31 -46z"/>
<path d="M2000 1444 c8 -10 26 -29 39 -43 60 -65 153 -228 186 -324 38 -113
48 -183 50 -347 1 -113 5 -173 14 -190 46 -88 156 -75 175 21 43 217 -108 583
-322 780 -63 59 -167 134 -142 103z"/>
<path d="M1417 1266 c-98 -91 -265 -180 -417 -222 -84 -23 -116 -26 -265 -28
-214 -2 -255 -19 -255 -105 0 -67 74 -97 211 -87 250 17 573 199 717 405 24
33 41 61 39 61 -2 0 -16 -11 -30 -24z"/>
<path d="M1747 1180 c-16 -236 -134 -473 -322 -647 -51 -48 -90 -93 -100 -117
-33 -79 7 -145 80 -133 146 24 327 335 367 632 12 86 6 285 -9 325 -8 19 -11
7 -16 -60z"/>
</g>
</svg>
